<svg xmlns="http://www.w3.org/2000/svg" xmlns:xlink="http://www.w3.org/1999/xlink" width="458" zoomAndPan="magnify" viewBox="0 0 343.5 154.499995" height="206" preserveAspectRatio="xMidYMid meet" version="1.0"><defs><filter x="0%" y="0%" width="100%" height="100%" id="af95ea9470"><feColorMatrix values="0 0 0 0 1 0 0 0 0 1 0 0 0 0 1 0 0 0 1 0" color-interpolation-filters="sRGB"/></filter><g/><clipPath id="dd691b73bb"><path d="M 0.304688 0 L 332 0 L 332 150 L 0.304688 150 Z M 0.304688 0 " clip-rule="nonzero"/></clipPath><clipPath id="8c1fb7e069"><path d="M 0.304688 0 L 131 0 L 131 149.515625 L 0.304688 149.515625 Z M 0.304688 0 " clip-rule="nonzero"/></clipPath><mask id="4f8272ce67"><g filter="url(#af95ea9470)"><rect x="-75.57" width="494.64" fill="#000000" y="-33.989999" height="222.479993" fill-opacity="0.71"/></g></mask><clipPath id="1570684b1d"><path d="M 0.308594 1.105469 L 129.96875 1.105469 L 129.96875 148.488281 L 0.308594 148.488281 Z M 0.308594 1.105469 " clip-rule="nonzero"/></clipPath><clipPath id="90a96378cf"><path d="M 4.191406 35.121094 L 61.136719 2.230469 C 63.539062 0.84375 66.503906 0.84375 68.90625 2.230469 L 125.851562 35.121094 C 128.253906 36.511719 129.734375 39.074219 129.734375 41.851562 L 129.734375 107.636719 C 129.734375 110.414062 128.253906 112.980469 125.851562 114.367188 L 68.90625 147.257812 C 66.503906 148.648438 63.539062 148.648438 61.136719 147.257812 L 4.191406 114.367188 C 1.789062 112.980469 0.308594 110.414062 0.308594 107.636719 L 0.308594 41.851562 C 0.308594 39.074219 1.789062 36.511719 4.191406 35.121094 Z M 4.191406 35.121094 " clip-rule="nonzero"/></clipPath><clipPath id="d4c3231a46"><path d="M 0.308594 0.105469 L 129.964844 0.105469 L 129.964844 147.488281 L 0.308594 147.488281 Z M 0.308594 0.105469 " clip-rule="nonzero"/></clipPath><clipPath id="cfeb60f45c"><path d="M 4.191406 34.121094 L 61.136719 1.230469 C 63.539062 -0.15625 66.503906 -0.15625 68.90625 1.230469 L 125.851562 34.121094 C 128.253906 35.511719 129.734375 38.074219 129.734375 40.851562 L 129.734375 106.636719 C 129.734375 109.414062 128.253906 111.980469 125.851562 113.367188 L 68.90625 146.257812 C 66.503906 147.648438 63.539062 147.648438 61.136719 146.257812 L 4.191406 113.367188 C 1.789062 111.980469 0.308594 109.414062 0.308594 106.636719 L 0.308594 40.851562 C 0.308594 38.074219 1.789062 35.511719 4.191406 34.121094 Z M 4.191406 34.121094 " clip-rule="nonzero"/></clipPath><clipPath id="4dbde71058"><rect x="0" width="130" y="0" height="148"/></clipPath><clipPath id="00cf820659"><rect x="0" width="131" y="0" height="150"/></clipPath><clipPath id="6b52e8a38b"><path d="M 147 23 L 331.871094 23 L 331.871094 87 L 147 87 Z M 147 23 " clip-rule="nonzero"/></clipPath><clipPath id="be383808ba"><rect x="0" width="185" y="0" height="64"/></clipPath><clipPath id="bf8f717889"><rect x="0" width="111" y="0" height="67"/></clipPath><clipPath id="88b0bed2ab"><rect x="0" width="332" y="0" height="150"/></clipPath></defs><g clip-path="url(#dd691b73bb)"><g transform="matrix(1, 0, 0, 1, 0.000000000000000056, 0)"><g clip-path="url(#88b0bed2ab)"><g clip-path="url(#8c1fb7e069)"><g mask="url(#4f8272ce67)"><g transform="matrix(1, 0, 0, 1, 0.000000000000000056, 0)"><g clip-path="url(#00cf820659)"><g clip-path="url(#1570684b1d)"><g clip-path="url(#90a96378cf)"><g transform="matrix(1, 0, 0, 1, 0.000000000000000056, 1)"><g clip-path="url(#4dbde71058)"><g clip-path="url(#d4c3231a46)"><g clip-path="url(#cfeb60f45c)"><path fill="#000000" d="M 0.308594 148.503906 L 0.308594 -0.910156 L 129.96875 -0.910156 L 129.96875 148.503906 Z M 0.308594 148.503906 " fill-opacity="1" fill-rule="nonzero"/></g></g></g></g></g></g></g></g></g></g><g clip-path="url(#6b52e8a38b)"><g transform="matrix(1, 0, 0, 1, 147, 23)"><g clip-path="url(#be383808ba)"><g fill="#000000" fill-opacity="1"><g transform="translate(0.750076, 48.636572)"><g><path d="M 34.34375 0.515625 L 11.640625 -31.828125 L 11.421875 -31.828125 L 11.421875 -9.78125 C 11.421875 -8.070312 11.476562 -6.722656 11.59375 -5.734375 C 11.71875 -4.742188 11.976562 -3.972656 12.375 -3.421875 C 12.769531 -2.878906 13.316406 -2.519531 14.015625 -2.34375 C 14.710938 -2.175781 15.628906 -2.078125 16.765625 -2.046875 L 16.765625 0 L 1.53125 0 L 1.53125 -2.046875 C 2.800781 -2.078125 3.816406 -2.1875 4.578125 -2.375 C 5.347656 -2.570312 5.945312 -2.925781 6.375 -3.4375 C 6.800781 -3.945312 7.082031 -4.671875 7.21875 -5.609375 C 7.363281 -6.546875 7.4375 -7.820312 7.4375 -9.4375 L 7.4375 -30.03125 C 7.4375 -31.46875 7.363281 -32.65625 7.21875 -33.59375 C 7.082031 -34.53125 6.828125 -35.269531 6.453125 -35.8125 C 6.078125 -36.363281 5.539062 -36.75 4.84375 -36.96875 C 4.144531 -37.195312 3.210938 -37.34375 2.046875 -37.40625 L 2.046875 -39.46875 L 16.34375 -39.46875 L 37 -9.84375 L 37.203125 -9.84375 L 37.203125 -29.671875 C 37.203125 -31.347656 37.140625 -32.6875 37.015625 -33.6875 C 36.898438 -34.695312 36.644531 -35.472656 36.25 -36.015625 C 35.863281 -36.566406 35.316406 -36.925781 34.609375 -37.09375 C 33.910156 -37.269531 33 -37.375 31.875 -37.40625 L 31.875 -39.46875 L 47.09375 -39.46875 L 47.09375 -37.40625 C 45.832031 -37.375 44.816406 -37.265625 44.046875 -37.078125 C 43.273438 -36.890625 42.675781 -36.539062 42.25 -36.03125 C 41.820312 -35.519531 41.539062 -34.785156 41.40625 -33.828125 C 41.269531 -32.867188 41.203125 -31.601562 41.203125 -30.03125 L 41.203125 0.515625 Z M 34.34375 0.515625 "/></g></g></g><g fill="#000000" fill-opacity="1"><g transform="translate(47.892067, 48.636572)"><g><path d="M 17.625 -14.609375 C 14.757812 -13.304688 12.597656 -12.097656 11.140625 -10.984375 C 9.691406 -9.878906 8.96875 -8.726562 8.96875 -7.53125 C 8.96875 -6.539062 9.238281 -5.753906 9.78125 -5.171875 C 10.332031 -4.597656 11.019531 -4.3125 11.84375 -4.3125 C 12.65625 -4.3125 13.421875 -4.453125 14.140625 -4.734375 C 14.859375 -5.023438 15.472656 -5.410156 15.984375 -5.890625 C 16.503906 -6.367188 16.90625 -6.941406 17.1875 -7.609375 C 17.476562 -8.273438 17.625 -8.984375 17.625 -9.734375 Z M 17.625 -17.328125 L 17.625 -19.46875 C 17.625 -21.457031 17.273438 -22.898438 16.578125 -23.796875 C 15.878906 -24.703125 14.796875 -25.15625 13.328125 -25.15625 C 12.335938 -25.15625 11.582031 -24.890625 11.0625 -24.359375 C 10.550781 -23.835938 10.078125 -22.960938 9.640625 -21.734375 C 9.328125 -20.878906 8.890625 -20.210938 8.328125 -19.734375 C 7.765625 -19.253906 6.988281 -19.015625 6 -19.015625 C 5.039062 -19.015625 4.304688 -19.300781 3.796875 -19.875 C 3.285156 -20.457031 3.03125 -21.28125 3.03125 -22.34375 C 3.03125 -23.988281 3.925781 -25.285156 5.71875 -26.234375 C 7.507812 -27.191406 10.21875 -27.671875 13.84375 -27.671875 C 17.664062 -27.671875 20.394531 -26.976562 22.03125 -25.59375 C 23.675781 -24.21875 24.5 -21.90625 24.5 -18.65625 L 24.5 -7.4375 C 24.5 -4.53125 25.078125 -3.078125 26.234375 -3.078125 C 26.890625 -3.078125 27.488281 -3.296875 28.03125 -3.734375 L 28.796875 -2.25 C 28.316406 -1.394531 27.570312 -0.71875 26.5625 -0.21875 C 25.5625 0.269531 24.429688 0.515625 23.171875 0.515625 C 21.597656 0.515625 20.398438 0.0351562 19.578125 -0.921875 C 18.753906 -1.878906 18.34375 -3.226562 18.34375 -4.96875 L 18.09375 -4.96875 C 17.101562 -3.195312 15.820312 -1.847656 14.25 -0.921875 C 12.675781 0.00390625 10.878906 0.46875 8.859375 0.46875 C 6.710938 0.46875 4.988281 -0.132812 3.6875 -1.34375 C 2.394531 -2.5625 1.75 -4.144531 1.75 -6.09375 C 1.75 -7.601562 2.410156 -9.015625 3.734375 -10.328125 C 5.066406 -11.640625 7.289062 -12.929688 10.40625 -14.203125 Z M 17.625 -17.328125 "/></g></g></g><g fill="#000000" fill-opacity="1"><g transform="translate(76.279696, 48.636572)"><g><path d="M 1.28125 -24.34375 L 1.28125 -26.65625 C 3.332031 -27.226562 5.046875 -28.101562 6.421875 -29.28125 C 7.804688 -30.46875 8.84375 -31.828125 9.53125 -33.359375 L 12.140625 -33.359375 L 12.140625 -27.15625 L 18.046875 -27.15625 L 18.046875 -24.34375 L 12.140625 -24.34375 L 12.140625 -8.609375 C 12.140625 -6.492188 12.367188 -4.988281 12.828125 -4.09375 C 13.296875 -3.207031 14.078125 -2.765625 15.171875 -2.765625 C 16.503906 -2.765625 17.507812 -3.378906 18.1875 -4.609375 L 19.265625 -3.125 C 18.304688 -0.695312 16.050781 0.515625 12.5 0.515625 C 10.144531 0.515625 8.304688 -0.03125 6.984375 -1.125 C 5.671875 -2.21875 5.015625 -3.753906 5.015625 -5.734375 L 5.015625 -24.34375 Z M 1.28125 -24.34375 "/></g></g></g><g fill="#000000" fill-opacity="1"><g transform="translate(94.828974, 48.636572)"><g><path d="M 23.828125 -18.75 C 23.828125 -20.125 23.789062 -21.210938 23.71875 -22.015625 C 23.65625 -22.816406 23.46875 -23.429688 23.15625 -23.859375 C 22.851562 -24.285156 22.398438 -24.570312 21.796875 -24.71875 C 21.203125 -24.875 20.394531 -25.003906 19.375 -25.109375 L 19.375 -27.15625 L 30.953125 -27.15625 L 30.953125 -11.640625 C 30.953125 -9.546875 30.976562 -7.910156 31.03125 -6.734375 C 31.082031 -5.554688 31.175781 -4.675781 31.3125 -4.09375 C 31.414062 -3.65625 31.535156 -3.304688 31.671875 -3.046875 C 31.804688 -2.796875 32.023438 -2.59375 32.328125 -2.4375 C 32.640625 -2.28125 33.0625 -2.175781 33.59375 -2.125 C 34.125 -2.070312 34.816406 -2.046875 35.671875 -2.046875 L 35.671875 -0.046875 L 25.46875 0.5625 L 24.90625 -4 L 24.703125 -4 C 23.816406 -2.5625 22.566406 -1.445312 20.953125 -0.65625 C 19.347656 0.125 17.554688 0.515625 15.578125 0.515625 C 11.921875 0.515625 9.132812 -0.78125 7.21875 -3.375 C 5.75 -5.363281 5.015625 -8.1875 5.015625 -11.84375 L 5.015625 -18.75 C 5.015625 -20.15625 4.976562 -21.257812 4.90625 -22.0625 C 4.84375 -22.863281 4.664062 -23.46875 4.375 -23.875 C 4.09375 -24.289062 3.660156 -24.570312 3.078125 -24.71875 C 2.492188 -24.875 1.691406 -25.003906 0.671875 -25.109375 L 0.671875 -27.15625 L 12.140625 -27.15625 L 12.140625 -12.65625 C 12.140625 -9.207031 12.566406 -6.703125 13.421875 -5.140625 C 14.273438 -3.585938 15.644531 -2.8125 17.53125 -2.8125 C 19.539062 -2.8125 21.09375 -3.738281 22.1875 -5.59375 C 23.28125 -7.363281 23.828125 -9.972656 23.828125 -13.421875 Z M 23.828125 -18.75 "/></g></g></g><g fill="#000000" fill-opacity="1"><g transform="translate(130.134207, 48.636572)"><g><path d="M 13.21875 -7.9375 C 13.21875 -6.601562 13.273438 -5.550781 13.390625 -4.78125 C 13.515625 -4.019531 13.765625 -3.429688 14.140625 -3.015625 C 14.515625 -2.609375 15.0625 -2.34375 15.78125 -2.21875 C 16.5 -2.101562 17.457031 -2.046875 18.65625 -2.046875 L 18.65625 0 L 1.53125 0 L 1.53125 -2.046875 C 2.5625 -2.117188 3.382812 -2.222656 4 -2.359375 C 4.613281 -2.492188 5.070312 -2.765625 5.375 -3.171875 C 5.6875 -3.585938 5.882812 -4.175781 5.96875 -4.9375 C 6.050781 -5.707031 6.09375 -6.742188 6.09375 -8.046875 L 6.09375 -14.296875 C 6.09375 -16.410156 6.039062 -18.097656 5.9375 -19.359375 C 5.84375 -20.628906 5.625 -21.601562 5.28125 -22.28125 C 4.9375 -22.96875 4.445312 -23.421875 3.8125 -23.640625 C 3.1875 -23.867188 2.359375 -23.984375 1.328125 -23.984375 L 1.328125 -25.78125 L 11.578125 -27.671875 L 12.40625 -21.78125 L 12.609375 -21.78125 C 13.523438 -23.59375 14.734375 -25.023438 16.234375 -26.078125 C 17.742188 -27.140625 19.335938 -27.671875 21.015625 -27.671875 C 22.304688 -27.671875 23.363281 -27.347656 24.1875 -26.703125 C 25.007812 -26.054688 25.421875 -25.234375 25.421875 -24.234375 C 25.421875 -23.140625 25.101562 -22.21875 24.46875 -21.46875 C 23.84375 -20.71875 22.984375 -20.34375 21.890625 -20.34375 C 21.367188 -20.34375 20.90625 -20.445312 20.5 -20.65625 C 20.09375 -20.863281 19.722656 -21.09375 19.390625 -21.34375 C 19.066406 -21.601562 18.742188 -21.84375 18.421875 -22.0625 C 18.097656 -22.28125 17.765625 -22.390625 17.421875 -22.390625 C 16.773438 -22.390625 16.160156 -21.960938 15.578125 -21.109375 C 14.992188 -20.253906 14.515625 -19.113281 14.140625 -17.6875 C 13.867188 -16.65625 13.644531 -15.5 13.46875 -14.21875 C 13.300781 -12.9375 13.21875 -11.664062 13.21875 -10.40625 Z M 13.21875 -7.9375 "/></g></g></g><g fill="#000000" fill-opacity="1"><g transform="translate(154.627491, 48.636572)"><g><path d="M 27.671875 -4.765625 C 24.566406 -1.242188 20.691406 0.515625 16.046875 0.515625 C 13.921875 0.515625 11.992188 0.179688 10.265625 -0.484375 C 8.546875 -1.148438 7.070312 -2.085938 5.84375 -3.296875 C 4.613281 -4.515625 3.65625 -5.957031 2.96875 -7.625 C 2.289062 -9.300781 1.953125 -11.164062 1.953125 -13.21875 C 1.953125 -15.34375 2.304688 -17.28125 3.015625 -19.03125 C 3.734375 -20.789062 4.75 -22.3125 6.0625 -23.59375 C 7.382812 -24.875 8.941406 -25.875 10.734375 -26.59375 C 12.523438 -27.3125 14.5 -27.671875 16.65625 -27.671875 C 20.28125 -27.671875 23.097656 -26.695312 25.109375 -24.75 C 27.128906 -22.800781 28.140625 -20.066406 28.140625 -16.546875 C 28.140625 -16.003906 28.050781 -15.671875 27.875 -15.546875 C 27.707031 -15.429688 27.226562 -15.375 26.4375 -15.375 L 9.9375 -15.375 C 9.800781 -15.0625 9.734375 -14.5 9.734375 -13.6875 C 9.734375 -10.332031 10.457031 -7.679688 11.90625 -5.734375 C 13.363281 -3.785156 15.335938 -2.8125 17.828125 -2.8125 C 19.265625 -2.8125 20.691406 -3.132812 22.109375 -3.78125 C 23.523438 -4.4375 24.898438 -5.363281 26.234375 -6.5625 Z M 17.734375 -18.25 C 19.097656 -18.25 19.976562 -18.320312 20.375 -18.46875 C 20.769531 -18.625 20.96875 -18.992188 20.96875 -19.578125 C 20.96875 -21.078125 20.539062 -22.304688 19.6875 -23.265625 C 18.832031 -24.222656 17.753906 -24.703125 16.453125 -24.703125 C 14.984375 -24.703125 13.675781 -24.09375 12.53125 -22.875 C 11.382812 -21.664062 10.640625 -20.125 10.296875 -18.25 Z M 17.734375 -18.25 "/></g></g></g></g></g></g><g transform="matrix(1, 0, 0, 1, 147, 67)"><g clip-path="url(#bf8f717889)"><g fill="#000000" fill-opacity="1"><g transform="translate(0.713471, 51.685334)"><g><path d="M 22.171875 0.875 C 18.222656 0.875 14.753906 0.046875 11.765625 -1.609375 C 8.785156 -3.273438 6.453125 -5.609375 4.765625 -8.609375 C 3.085938 -11.617188 2.25 -15.117188 2.25 -19.109375 C 2.25 -23.085938 3.144531 -26.566406 4.9375 -29.546875 C 6.726562 -32.535156 9.1875 -34.867188 12.3125 -36.546875 C 15.445312 -38.234375 19.046875 -39.078125 23.109375 -39.078125 C 24.898438 -39.078125 26.789062 -38.90625 28.78125 -38.5625 C 30.78125 -38.21875 32.734375 -37.695312 34.640625 -37 L 35.625 -26.34375 L 34.640625 -26.078125 C 33.242188 -29.472656 31.503906 -32.210938 29.421875 -34.296875 C 27.335938 -36.390625 24.796875 -37.4375 21.796875 -37.4375 C 17.472656 -37.4375 14.101562 -35.890625 11.6875 -32.796875 C 9.269531 -29.703125 8.0625 -25.484375 8.0625 -20.140625 C 8.0625 -16.484375 8.675781 -13.179688 9.90625 -10.234375 C 11.132812 -7.285156 12.863281 -4.941406 15.09375 -3.203125 C 17.320312 -1.472656 19.957031 -0.609375 23 -0.609375 C 26 -0.609375 28.5625 -1.519531 30.6875 -3.34375 C 32.8125 -5.175781 34.710938 -7.628906 36.390625 -10.703125 L 37.375 -10.375 L 34.09375 -0.875 C 32.070312 -0.289062 30.144531 0.144531 28.3125 0.4375 C 26.488281 0.726562 24.441406 0.875 22.171875 0.875 Z M 22.171875 0.875 "/></g></g></g><g fill="#000000" fill-opacity="1"><g transform="translate(38.585567, 51.685334)"><g><path d="M 5.109375 -7.296875 L 5.109375 -32.609375 C 5.109375 -34.035156 4.773438 -35.101562 4.109375 -35.8125 C 3.453125 -36.53125 2.484375 -36.976562 1.203125 -37.15625 L 1.203125 -38.265625 C 4.171875 -38.703125 6.644531 -39.378906 8.625 -40.296875 L 9.5 -39.515625 L 9.5 -7.296875 C 9.5 -5.941406 9.5625 -4.878906 9.6875 -4.109375 C 9.8125 -3.347656 10.128906 -2.742188 10.640625 -2.296875 C 11.160156 -1.859375 12.023438 -1.457031 13.234375 -1.09375 L 13.234375 0 L 1.203125 0 L 1.203125 -1.09375 C 2.335938 -1.457031 3.179688 -1.820312 3.734375 -2.1875 C 4.285156 -2.5625 4.648438 -3.128906 4.828125 -3.890625 C 5.015625 -4.660156 5.109375 -5.796875 5.109375 -7.296875 Z M 5.109375 -7.296875 "/></g></g></g><g fill="#000000" fill-opacity="1"><g transform="translate(51.813084, 51.685334)"><g><path d="M 26.015625 -7.1875 C 26.015625 -5.03125 26.328125 -3.546875 26.953125 -2.734375 C 27.578125 -1.929688 28.507812 -1.382812 29.75 -1.09375 L 29.75 0 L 22.609375 0 L 22.015625 -0.875 L 22.015625 -3.40625 C 19.921875 -2.050781 18.097656 -1.0625 16.546875 -0.4375 C 14.992188 0.1875 13.429688 0.5 11.859375 0.5 C 7.097656 0.5 4.71875 -2.460938 4.71875 -8.390625 L 4.71875 -19.8125 C 4.71875 -21.238281 4.390625 -22.304688 3.734375 -23.015625 C 3.078125 -23.734375 2.109375 -24.1875 0.828125 -24.375 L 0.828125 -25.46875 C 3.785156 -25.90625 6.253906 -26.582031 8.234375 -27.5 L 9.109375 -26.734375 L 9.109375 -11.140625 C 9.109375 -9.421875 9.207031 -7.898438 9.40625 -6.578125 C 9.613281 -5.265625 10.070312 -4.242188 10.78125 -3.515625 C 11.5 -2.785156 12.625 -2.421875 14.15625 -2.421875 C 15.144531 -2.421875 16.257812 -2.609375 17.5 -2.984375 C 18.75 -3.367188 20.125 -4.039062 21.625 -5 L 21.625 -19.546875 C 21.625 -20.972656 21.296875 -22.039062 20.640625 -22.75 C 19.984375 -23.46875 19.015625 -23.914062 17.734375 -24.09375 L 17.734375 -25.1875 C 20.691406 -25.632812 23.160156 -26.3125 25.140625 -27.21875 L 26.015625 -26.453125 Z M 26.015625 -7.1875 "/></g></g></g><g fill="#000000" fill-opacity="1"><g transform="translate(81.616692, 51.685334)"><g><path d="M 17.234375 -26.890625 C 19.285156 -26.890625 21.101562 -26.359375 22.6875 -25.296875 C 24.28125 -24.242188 25.535156 -22.765625 26.453125 -20.859375 C 27.367188 -18.953125 27.828125 -16.703125 27.828125 -14.109375 C 27.828125 -11.953125 27.414062 -9.992188 26.59375 -8.234375 C 25.769531 -6.472656 24.660156 -4.953125 23.265625 -3.671875 C 21.878906 -2.390625 20.304688 -1.398438 18.546875 -0.703125 C 16.796875 -0.015625 14.988281 0.328125 13.125 0.328125 C 12.207031 0.328125 11.144531 0.242188 9.9375 0.078125 C 8.726562 -0.0859375 7.582031 -0.296875 6.5 -0.546875 C 5.425781 -0.804688 4.578125 -1.0625 3.953125 -1.3125 L 3.953125 -34.25 C 3.953125 -35.675781 3.617188 -36.742188 2.953125 -37.453125 C 2.296875 -38.171875 1.332031 -38.625 0.0625 -38.8125 L 0.0625 -39.90625 C 3.019531 -40.34375 5.488281 -41.019531 7.46875 -41.9375 L 8.34375 -41.171875 L 8.34375 -34.3125 L 8.125 -23.328125 C 9.8125 -24.390625 11.367188 -25.25 12.796875 -25.90625 C 14.222656 -26.5625 15.703125 -26.890625 17.234375 -26.890625 Z M 15.09375 -1.640625 C 17.769531 -1.640625 19.828125 -2.554688 21.265625 -4.390625 C 22.710938 -6.222656 23.4375 -8.710938 23.4375 -11.859375 C 23.4375 -15.804688 22.691406 -18.847656 21.203125 -20.984375 C 19.722656 -23.128906 17.757812 -24.203125 15.3125 -24.203125 C 14.289062 -24.203125 13.203125 -24 12.046875 -23.59375 C 10.890625 -23.195312 9.65625 -22.632812 8.34375 -21.90625 L 8.34375 -3.234375 C 9.1875 -2.796875 10.210938 -2.421875 11.421875 -2.109375 C 12.628906 -1.796875 13.851562 -1.640625 15.09375 -1.640625 Z M 15.09375 -1.640625 "/></g></g></g></g></g></g></g></g></svg>