<svg xmlns="http://www.w3.org/2000/svg" xmlns:xlink="http://www.w3.org/1999/xlink" width="500" zoomAndPan="magnify" viewBox="0 0 375 374.999991" height="500" preserveAspectRatio="xMidYMid meet" version="1.0"><defs><filter x="0%" y="0%" width="100%" height="100%" id="ca945a9e45"><feColorMatrix values="0 0 0 0 1 0 0 0 0 1 0 0 0 0 1 0 0 0 1 0" color-interpolation-filters="sRGB"/></filter><g/><clipPath id="b7982ed732"><path d="M 0.121094 0.519531 L 108 0.519531 L 108 124.121094 L 0.121094 124.121094 Z M 0.121094 0.519531 " clip-rule="nonzero"/></clipPath><mask id="df4654486b"><g filter="url(#ca945a9e45)"><rect x="-133.5" width="540" fill="#000000" y="-207.499998" height="539.999987" fill-opacity="0.71"/></g></mask><clipPath id="7346e3fbfa"><path d="M 0.1875 2 L 107 2 L 107 123 L 0.1875 123 Z M 0.1875 2 " clip-rule="nonzero"/></clipPath><clipPath id="02efd3f7f2"><path d="M 4.082031 29.433594 L 49.625 3.128906 C 52.035156 1.734375 55.003906 1.734375 57.417969 3.128906 L 102.957031 29.433594 C 105.367188 30.824219 106.851562 33.398438 106.851562 36.183594 L 106.851562 88.796875 C 106.851562 91.578125 105.367188 94.152344 102.957031 95.546875 L 57.417969 121.851562 C 55.003906 123.242188 52.035156 123.242188 49.625 121.851562 L 4.082031 95.546875 C 1.671875 94.152344 0.1875 91.578125 0.1875 88.796875 L 0.1875 36.183594 C 0.1875 33.398438 1.671875 30.824219 4.082031 29.433594 Z M 4.082031 29.433594 " clip-rule="nonzero"/></clipPath><clipPath id="69ce4fc189"><path d="M 0.1875 0 L 106.921875 0 L 106.921875 121 L 0.1875 121 Z M 0.1875 0 " clip-rule="nonzero"/></clipPath><clipPath id="35bb71e9a4"><path d="M 4.082031 27.433594 L 49.625 1.128906 C 52.035156 -0.265625 55.003906 -0.265625 57.417969 1.128906 L 102.957031 27.433594 C 105.367188 28.824219 106.851562 31.398438 106.851562 34.183594 L 106.851562 86.796875 C 106.851562 89.578125 105.367188 92.152344 102.957031 93.546875 L 57.417969 119.851562 C 55.003906 121.242188 52.035156 121.242188 49.625 119.851562 L 4.082031 93.546875 C 1.671875 92.152344 0.1875 89.578125 0.1875 86.796875 L 0.1875 34.183594 C 0.1875 31.398438 1.671875 28.824219 4.082031 27.433594 Z M 4.082031 27.433594 " clip-rule="nonzero"/></clipPath><clipPath id="65d22db78e"><rect x="0" width="107" y="0" height="121"/></clipPath><clipPath id="b9abde0d38"><rect x="0" width="108" y="0" height="125"/></clipPath><clipPath id="892fe18b5b"><path d="M 121 20 L 273.480469 20 L 273.480469 73 L 121 73 Z M 121 20 " clip-rule="nonzero"/></clipPath><clipPath id="06a0e9f980"><rect x="0" width="153" y="0" height="53"/></clipPath><clipPath id="8ac0366878"><rect x="0" width="92" y="0" height="56"/></clipPath><clipPath id="ab15c2ed95"><rect x="0" width="274" y="0" height="125"/></clipPath></defs><g transform="matrix(1, 0, 0, 1, 51, 125)"><g clip-path="url(#ab15c2ed95)"><g clip-path="url(#b7982ed732)"><g mask="url(#df4654486b)"><g><g clip-path="url(#b9abde0d38)"><g clip-path="url(#7346e3fbfa)"><g clip-path="url(#02efd3f7f2)"><g transform="matrix(1, 0, 0, 1, 0, 2)"><g clip-path="url(#65d22db78e)"><g clip-path="url(#69ce4fc189)"><g clip-path="url(#35bb71e9a4)"><path fill="#f6f5f0" d="M 0.1875 122.101562 L 0.1875 -1.035156 L 107.046875 -1.035156 L 107.046875 122.101562 Z M 0.1875 122.101562 " fill-opacity="1" fill-rule="nonzero"/></g></g></g></g></g></g></g></g></g></g><g clip-path="url(#892fe18b5b)"><g transform="matrix(1, 0, 0, 1, 121, 20)"><g clip-path="url(#06a0e9f980)"><g fill="#f6f5f0" fill-opacity="1"><g transform="translate(0.701351, 39.927403)"><g><path d="M 28.296875 0.421875 L 9.59375 -26.234375 L 9.421875 -26.234375 L 9.421875 -8.0625 C 9.421875 -6.65625 9.46875 -5.539062 9.5625 -4.71875 C 9.664062 -3.90625 9.878906 -3.273438 10.203125 -2.828125 C 10.523438 -2.378906 10.972656 -2.082031 11.546875 -1.9375 C 12.128906 -1.800781 12.882812 -1.71875 13.8125 -1.6875 L 13.8125 0 L 1.265625 0 L 1.265625 -1.6875 C 2.304688 -1.71875 3.144531 -1.8125 3.78125 -1.96875 C 4.414062 -2.125 4.90625 -2.410156 5.25 -2.828125 C 5.601562 -3.253906 5.835938 -3.851562 5.953125 -4.625 C 6.066406 -5.394531 6.125 -6.441406 6.125 -7.765625 L 6.125 -24.75 C 6.125 -25.925781 6.066406 -26.898438 5.953125 -27.671875 C 5.835938 -28.453125 5.625 -29.066406 5.3125 -29.515625 C 5.007812 -29.972656 4.566406 -30.289062 3.984375 -30.46875 C 3.410156 -30.65625 2.644531 -30.773438 1.6875 -30.828125 L 1.6875 -32.515625 L 13.46875 -32.515625 L 30.5 -8.109375 L 30.65625 -8.109375 L 30.65625 -24.453125 C 30.65625 -25.828125 30.601562 -26.929688 30.5 -27.765625 C 30.40625 -28.597656 30.195312 -29.238281 29.875 -29.6875 C 29.550781 -30.132812 29.097656 -30.425781 28.515625 -30.5625 C 27.941406 -30.707031 27.191406 -30.796875 26.265625 -30.828125 L 26.265625 -32.515625 L 38.8125 -32.515625 L 38.8125 -30.828125 C 37.769531 -30.796875 36.929688 -30.703125 36.296875 -30.546875 C 35.660156 -30.398438 35.164062 -30.113281 34.8125 -29.6875 C 34.46875 -29.269531 34.238281 -28.664062 34.125 -27.875 C 34.007812 -27.082031 33.953125 -26.039062 33.953125 -24.75 L 33.953125 0.421875 Z M 28.296875 0.421875 "/></g></g></g><g fill="#f6f5f0" fill-opacity="1"><g transform="translate(39.553723, 39.927403)"><g><path d="M 14.53125 -12.03125 C 12.164062 -10.96875 10.382812 -9.976562 9.1875 -9.0625 C 7.988281 -8.144531 7.390625 -7.191406 7.390625 -6.203125 C 7.390625 -5.390625 7.613281 -4.742188 8.0625 -4.265625 C 8.519531 -3.785156 9.082031 -3.546875 9.75 -3.546875 C 10.425781 -3.546875 11.0625 -3.664062 11.65625 -3.90625 C 12.25 -4.144531 12.753906 -4.460938 13.171875 -4.859375 C 13.597656 -5.253906 13.929688 -5.722656 14.171875 -6.265625 C 14.410156 -6.816406 14.53125 -7.40625 14.53125 -8.03125 Z M 14.53125 -14.28125 L 14.53125 -16.046875 C 14.53125 -17.679688 14.238281 -18.867188 13.65625 -19.609375 C 13.082031 -20.359375 12.191406 -20.734375 10.984375 -20.734375 C 10.160156 -20.734375 9.535156 -20.515625 9.109375 -20.078125 C 8.691406 -19.640625 8.300781 -18.914062 7.9375 -17.90625 C 7.6875 -17.195312 7.328125 -16.644531 6.859375 -16.25 C 6.398438 -15.863281 5.757812 -15.671875 4.9375 -15.671875 C 4.15625 -15.671875 3.550781 -15.910156 3.125 -16.390625 C 2.695312 -16.867188 2.484375 -17.546875 2.484375 -18.421875 C 2.484375 -19.765625 3.222656 -20.832031 4.703125 -21.625 C 6.179688 -22.414062 8.414062 -22.8125 11.40625 -22.8125 C 14.5625 -22.8125 16.8125 -22.238281 18.15625 -21.09375 C 19.507812 -19.957031 20.1875 -18.050781 20.1875 -15.375 L 20.1875 -6.125 C 20.1875 -3.726562 20.664062 -2.53125 21.625 -2.53125 C 22.15625 -2.53125 22.648438 -2.710938 23.109375 -3.078125 L 23.734375 -1.859375 C 23.335938 -1.148438 22.722656 -0.59375 21.890625 -0.1875 C 21.066406 0.21875 20.132812 0.421875 19.09375 0.421875 C 17.789062 0.421875 16.800781 0.03125 16.125 -0.75 C 15.457031 -1.539062 15.125 -2.65625 15.125 -4.09375 L 14.90625 -4.09375 C 14.09375 -2.632812 13.035156 -1.523438 11.734375 -0.765625 C 10.441406 -0.00390625 8.96875 0.375 7.3125 0.375 C 5.53125 0.375 4.101562 -0.125 3.03125 -1.125 C 1.96875 -2.125 1.4375 -3.425781 1.4375 -5.03125 C 1.4375 -6.269531 1.984375 -7.429688 3.078125 -8.515625 C 4.179688 -9.597656 6.015625 -10.660156 8.578125 -11.703125 Z M 14.53125 -14.28125 "/></g></g></g><g fill="#f6f5f0" fill-opacity="1"><g transform="translate(62.949569, 39.927403)"><g><path d="M 1.0625 -20.0625 L 1.0625 -21.96875 C 2.75 -22.445312 4.160156 -23.171875 5.296875 -24.140625 C 6.441406 -25.109375 7.296875 -26.226562 7.859375 -27.5 L 10.015625 -27.5 L 10.015625 -22.390625 L 14.859375 -22.390625 L 14.859375 -20.0625 L 10.015625 -20.0625 L 10.015625 -7.09375 C 10.015625 -5.351562 10.203125 -4.113281 10.578125 -3.375 C 10.960938 -2.644531 11.601562 -2.28125 12.5 -2.28125 C 13.601562 -2.28125 14.4375 -2.785156 15 -3.796875 L 15.875 -2.578125 C 15.09375 -0.578125 13.238281 0.421875 10.3125 0.421875 C 8.363281 0.421875 6.847656 -0.0234375 5.765625 -0.921875 C 4.679688 -1.828125 4.140625 -3.097656 4.140625 -4.734375 L 4.140625 -20.0625 Z M 1.0625 -20.0625 "/></g></g></g><g fill="#f6f5f0" fill-opacity="1"><g transform="translate(78.237074, 39.927403)"><g><path d="M 19.640625 -15.453125 C 19.640625 -16.578125 19.609375 -17.46875 19.546875 -18.125 C 19.492188 -18.789062 19.335938 -19.300781 19.078125 -19.65625 C 18.828125 -20.007812 18.457031 -20.25 17.96875 -20.375 C 17.476562 -20.5 16.8125 -20.601562 15.96875 -20.6875 L 15.96875 -22.390625 L 25.515625 -22.390625 L 25.515625 -9.59375 C 25.515625 -7.875 25.535156 -6.523438 25.578125 -5.546875 C 25.617188 -4.578125 25.695312 -3.851562 25.8125 -3.375 C 25.894531 -3.007812 25.988281 -2.722656 26.09375 -2.515625 C 26.207031 -2.304688 26.390625 -2.132812 26.640625 -2 C 26.898438 -1.875 27.25 -1.789062 27.6875 -1.75 C 28.125 -1.707031 28.691406 -1.6875 29.390625 -1.6875 L 29.390625 -0.046875 L 20.984375 0.46875 L 20.53125 -3.296875 L 20.359375 -3.296875 C 19.628906 -2.109375 18.597656 -1.191406 17.265625 -0.546875 C 15.941406 0.0976562 14.46875 0.421875 12.84375 0.421875 C 9.820312 0.421875 7.523438 -0.644531 5.953125 -2.78125 C 4.742188 -4.414062 4.140625 -6.738281 4.140625 -9.75 L 4.140625 -15.453125 C 4.140625 -16.609375 4.109375 -17.515625 4.046875 -18.171875 C 3.992188 -18.835938 3.847656 -19.335938 3.609375 -19.671875 C 3.367188 -20.015625 3.007812 -20.25 2.53125 -20.375 C 2.050781 -20.5 1.390625 -20.601562 0.546875 -20.6875 L 0.546875 -22.390625 L 10.015625 -22.390625 L 10.015625 -10.4375 C 10.015625 -7.59375 10.363281 -5.53125 11.0625 -4.25 C 11.769531 -2.96875 12.894531 -2.328125 14.4375 -2.328125 C 16.101562 -2.328125 17.382812 -3.085938 18.28125 -4.609375 C 19.1875 -6.066406 19.640625 -8.21875 19.640625 -11.0625 Z M 19.640625 -15.453125 "/></g></g></g><g fill="#f6f5f0" fill-opacity="1"><g transform="translate(107.334107, 39.927403)"><g><path d="M 10.890625 -6.546875 C 10.890625 -5.453125 10.9375 -4.585938 11.03125 -3.953125 C 11.132812 -3.316406 11.34375 -2.828125 11.65625 -2.484375 C 11.96875 -2.148438 12.414062 -1.929688 13 -1.828125 C 13.59375 -1.734375 14.382812 -1.6875 15.375 -1.6875 L 15.375 0 L 1.265625 0 L 1.265625 -1.6875 C 2.109375 -1.75 2.78125 -1.832031 3.28125 -1.9375 C 3.789062 -2.050781 4.171875 -2.273438 4.421875 -2.609375 C 4.679688 -2.953125 4.847656 -3.441406 4.921875 -4.078125 C 4.992188 -4.710938 5.03125 -5.5625 5.03125 -6.625 L 5.03125 -11.78125 C 5.03125 -13.53125 4.984375 -14.925781 4.890625 -15.96875 C 4.804688 -17.007812 4.625 -17.8125 4.34375 -18.375 C 4.0625 -18.9375 3.660156 -19.304688 3.140625 -19.484375 C 2.617188 -19.671875 1.9375 -19.765625 1.09375 -19.765625 L 1.09375 -21.25 L 9.546875 -22.8125 L 10.21875 -17.953125 L 10.390625 -17.953125 C 11.148438 -19.441406 12.148438 -20.625 13.390625 -21.5 C 14.628906 -22.375 15.9375 -22.8125 17.3125 -22.8125 C 18.382812 -22.8125 19.257812 -22.539062 19.9375 -22 C 20.613281 -21.46875 20.953125 -20.796875 20.953125 -19.984375 C 20.953125 -19.078125 20.691406 -18.3125 20.171875 -17.6875 C 19.648438 -17.070312 18.9375 -16.765625 18.03125 -16.765625 C 17.613281 -16.765625 17.234375 -16.847656 16.890625 -17.015625 C 16.554688 -17.191406 16.253906 -17.382812 15.984375 -17.59375 C 15.710938 -17.800781 15.441406 -17.992188 15.171875 -18.171875 C 14.910156 -18.359375 14.640625 -18.453125 14.359375 -18.453125 C 13.828125 -18.453125 13.320312 -18.097656 12.84375 -17.390625 C 12.363281 -16.691406 11.96875 -15.753906 11.65625 -14.578125 C 11.425781 -13.722656 11.238281 -12.769531 11.09375 -11.71875 C 10.957031 -10.664062 10.890625 -9.617188 10.890625 -8.578125 Z M 10.890625 -6.546875 "/></g></g></g><g fill="#f6f5f0" fill-opacity="1"><g transform="translate(127.520403, 39.927403)"><g><path d="M 22.8125 -3.921875 C 20.25 -1.023438 17.050781 0.421875 13.21875 0.421875 C 11.46875 0.421875 9.878906 0.148438 8.453125 -0.390625 C 7.035156 -0.941406 5.820312 -1.71875 4.8125 -2.71875 C 3.800781 -3.71875 3.015625 -4.90625 2.453125 -6.28125 C 1.890625 -7.664062 1.609375 -9.203125 1.609375 -10.890625 C 1.609375 -12.640625 1.898438 -14.238281 2.484375 -15.6875 C 3.078125 -17.132812 3.914062 -18.382812 5 -19.4375 C 6.082031 -20.5 7.363281 -21.328125 8.84375 -21.921875 C 10.320312 -22.515625 11.945312 -22.8125 13.71875 -22.8125 C 16.707031 -22.8125 19.03125 -22.003906 20.6875 -20.390625 C 22.351562 -18.785156 23.1875 -16.535156 23.1875 -13.640625 C 23.1875 -13.191406 23.113281 -12.914062 22.96875 -12.8125 C 22.832031 -12.71875 22.441406 -12.671875 21.796875 -12.671875 L 8.1875 -12.671875 C 8.082031 -12.421875 8.03125 -11.957031 8.03125 -11.28125 C 8.03125 -8.519531 8.625 -6.335938 9.8125 -4.734375 C 11.007812 -3.128906 12.640625 -2.328125 14.703125 -2.328125 C 15.878906 -2.328125 17.050781 -2.59375 18.21875 -3.125 C 19.394531 -3.65625 20.53125 -4.414062 21.625 -5.40625 Z M 14.609375 -15.03125 C 15.734375 -15.03125 16.457031 -15.09375 16.78125 -15.21875 C 17.113281 -15.351562 17.28125 -15.660156 17.28125 -16.140625 C 17.28125 -17.367188 16.925781 -18.378906 16.21875 -19.171875 C 15.507812 -19.960938 14.625 -20.359375 13.5625 -20.359375 C 12.34375 -20.359375 11.257812 -19.859375 10.3125 -18.859375 C 9.375 -17.859375 8.765625 -16.582031 8.484375 -15.03125 Z M 14.609375 -15.03125 "/></g></g></g></g></g></g><g transform="matrix(1, 0, 0, 1, 121, 56)"><g clip-path="url(#8ac0366878)"><g fill="#f6f5f0" fill-opacity="1"><g transform="translate(0.671175, 42.702937)"><g><path d="M 18.28125 0.71875 C 15.019531 0.71875 12.160156 0.0351562 9.703125 -1.328125 C 7.242188 -2.703125 5.320312 -4.625 3.9375 -7.09375 C 2.550781 -9.570312 1.859375 -12.457031 1.859375 -15.75 C 1.859375 -19.03125 2.597656 -21.898438 4.078125 -24.359375 C 5.554688 -26.828125 7.582031 -28.753906 10.15625 -30.140625 C 12.738281 -31.523438 15.703125 -32.21875 19.046875 -32.21875 C 20.523438 -32.21875 22.085938 -32.070312 23.734375 -31.78125 C 25.378906 -31.5 26.984375 -31.070312 28.546875 -30.5 L 29.375 -21.71875 L 28.546875 -21.5 C 27.398438 -24.300781 25.96875 -26.5625 24.25 -28.28125 C 22.53125 -30 20.4375 -30.859375 17.96875 -30.859375 C 14.40625 -30.859375 11.628906 -29.582031 9.640625 -27.03125 C 7.648438 -24.488281 6.65625 -21.015625 6.65625 -16.609375 C 6.65625 -13.585938 7.160156 -10.863281 8.171875 -8.4375 C 9.179688 -6.007812 10.601562 -4.078125 12.4375 -2.640625 C 14.28125 -1.210938 16.453125 -0.5 18.953125 -0.5 C 21.429688 -0.5 23.546875 -1.25 25.296875 -2.75 C 27.046875 -4.257812 28.613281 -6.285156 30 -8.828125 L 30.8125 -8.546875 L 28.09375 -0.71875 C 26.4375 -0.238281 24.851562 0.117188 23.34375 0.359375 C 21.84375 0.597656 20.15625 0.71875 18.28125 0.71875 Z M 18.28125 0.71875 "/></g></g></g><g fill="#f6f5f0" fill-opacity="1"><g transform="translate(31.883704, 42.702937)"><g><path d="M 4.203125 -6.015625 L 4.203125 -26.875 C 4.203125 -28.050781 3.929688 -28.929688 3.390625 -29.515625 C 2.847656 -30.109375 2.050781 -30.484375 1 -30.640625 L 1 -31.546875 C 3.4375 -31.898438 5.472656 -32.457031 7.109375 -33.21875 L 7.828125 -32.578125 L 7.828125 -6.015625 C 7.828125 -4.898438 7.878906 -4.023438 7.984375 -3.390625 C 8.085938 -2.753906 8.347656 -2.253906 8.765625 -1.890625 C 9.191406 -1.535156 9.90625 -1.207031 10.90625 -0.90625 L 10.90625 0 L 1 0 L 1 -0.90625 C 1.925781 -1.207031 2.613281 -1.507812 3.0625 -1.8125 C 3.519531 -2.113281 3.820312 -2.578125 3.96875 -3.203125 C 4.125 -3.835938 4.203125 -4.773438 4.203125 -6.015625 Z M 4.203125 -6.015625 "/></g></g></g><g fill="#f6f5f0" fill-opacity="1"><g transform="translate(42.785247, 42.702937)"><g><path d="M 21.453125 -5.921875 C 21.453125 -4.148438 21.707031 -2.929688 22.21875 -2.265625 C 22.726562 -1.597656 23.5 -1.144531 24.53125 -0.90625 L 24.53125 0 L 18.640625 0 L 18.140625 -0.71875 L 18.140625 -2.8125 C 16.421875 -1.6875 14.921875 -0.867188 13.640625 -0.359375 C 12.359375 0.148438 11.070312 0.40625 9.78125 0.40625 C 5.851562 0.40625 3.890625 -2.035156 3.890625 -6.921875 L 3.890625 -16.328125 C 3.890625 -17.503906 3.617188 -18.382812 3.078125 -18.96875 C 2.535156 -19.5625 1.734375 -19.9375 0.671875 -20.09375 L 0.671875 -21 C 3.117188 -21.351562 5.15625 -21.910156 6.78125 -22.671875 L 7.515625 -22.03125 L 7.515625 -9.1875 C 7.515625 -7.769531 7.597656 -6.515625 7.765625 -5.421875 C 7.929688 -4.335938 8.304688 -3.492188 8.890625 -2.890625 C 9.484375 -2.285156 10.410156 -1.984375 11.671875 -1.984375 C 12.484375 -1.984375 13.398438 -2.140625 14.421875 -2.453125 C 15.453125 -2.773438 16.585938 -3.332031 17.828125 -4.125 L 17.828125 -16.109375 C 17.828125 -17.285156 17.554688 -18.164062 17.015625 -18.75 C 16.472656 -19.34375 15.671875 -19.710938 14.609375 -19.859375 L 14.609375 -20.765625 C 17.054688 -21.128906 19.09375 -21.6875 20.71875 -22.4375 L 21.453125 -21.8125 Z M 21.453125 -5.921875 "/></g></g></g><g fill="#f6f5f0" fill-opacity="1"><g transform="translate(67.34808, 42.702937)"><g><path d="M 14.203125 -22.171875 C 15.898438 -22.171875 17.398438 -21.734375 18.703125 -20.859375 C 20.015625 -19.984375 21.046875 -18.757812 21.796875 -17.1875 C 22.554688 -15.625 22.9375 -13.769531 22.9375 -11.625 C 22.9375 -9.84375 22.597656 -8.226562 21.921875 -6.78125 C 21.242188 -5.332031 20.332031 -4.082031 19.1875 -3.03125 C 18.039062 -1.976562 16.742188 -1.164062 15.296875 -0.59375 C 13.847656 -0.0195312 12.351562 0.265625 10.8125 0.265625 C 10.0625 0.265625 9.1875 0.195312 8.1875 0.0625 C 7.195312 -0.0703125 6.253906 -0.242188 5.359375 -0.453125 C 4.472656 -0.660156 3.773438 -0.875 3.265625 -1.09375 L 3.265625 -28.234375 C 3.265625 -29.410156 2.988281 -30.289062 2.4375 -30.875 C 1.894531 -31.46875 1.097656 -31.835938 0.046875 -31.984375 L 0.046875 -32.890625 C 2.484375 -33.253906 4.519531 -33.816406 6.15625 -34.578125 L 6.875 -33.9375 L 6.875 -28.28125 L 6.703125 -19.234375 C 8.085938 -20.109375 9.367188 -20.816406 10.546875 -21.359375 C 11.722656 -21.898438 12.941406 -22.171875 14.203125 -22.171875 Z M 12.4375 -1.359375 C 14.644531 -1.359375 16.34375 -2.109375 17.53125 -3.609375 C 18.726562 -5.117188 19.328125 -7.175781 19.328125 -9.78125 C 19.328125 -13.03125 18.710938 -15.535156 17.484375 -17.296875 C 16.265625 -19.066406 14.644531 -19.953125 12.625 -19.953125 C 11.78125 -19.953125 10.878906 -19.785156 9.921875 -19.453125 C 8.972656 -19.117188 7.957031 -18.65625 6.875 -18.0625 L 6.875 -2.671875 C 7.570312 -2.304688 8.414062 -1.992188 9.40625 -1.734375 C 10.40625 -1.484375 11.414062 -1.359375 12.4375 -1.359375 Z M 12.4375 -1.359375 "/></g></g></g></g></g></g></g></svg>