<svg xmlns="http://www.w3.org/2000/svg" xmlns:xlink="http://www.w3.org/1999/xlink" width="500" zoomAndPan="magnify" viewBox="0 0 375 157.92" height="200" preserveAspectRatio="xMidYMid meet" version="1.0"><defs><filter x="0%" y="0%" width="100%" height="100%" id="ab258c3da3"><feColorMatrix values="0 0 0 0 1 0 0 0 0 1 0 0 0 0 1 0 0 0 1 0" color-interpolation-filters="sRGB"/></filter><g/><clipPath id="04357edca0"><path d="M 21 0 L 355 0 L 355 149.925781 L 21 149.925781 Z M 21 0 " clip-rule="nonzero"/></clipPath><clipPath id="3a77474f7c"><path d="M 0.445312 0 L 131 0 L 131 149.925781 L 0.445312 149.925781 Z M 0.445312 0 " clip-rule="nonzero"/></clipPath><mask id="031a43898b"><g filter="url(#ab258c3da3)"><rect x="-103.5" width="540" fill="#000000" y="-34.7424" height="227.4048" fill-opacity="0.71"/></g></mask><clipPath id="6e1c58011d"><path d="M 0.652344 1.109375 L 130.664062 1.109375 L 130.664062 148.894531 L 0.652344 148.894531 Z M 0.652344 1.109375 " clip-rule="nonzero"/></clipPath><clipPath id="3e5eeebc6c"><path d="M 4.546875 35.21875 L 61.644531 2.234375 C 64.054688 0.84375 67.023438 0.84375 69.433594 2.234375 L 126.535156 35.21875 C 128.945312 36.609375 130.429688 39.183594 130.429688 41.964844 L 130.429688 107.933594 C 130.429688 110.714844 128.945312 113.289062 126.535156 114.679688 L 69.433594 147.660156 C 67.023438 149.054688 64.054688 149.054688 61.644531 147.660156 L 4.546875 114.679688 C 2.136719 113.289062 0.652344 110.714844 0.652344 107.933594 L 0.652344 41.964844 C 0.652344 39.183594 2.136719 36.609375 4.546875 35.21875 Z M 4.546875 35.21875 " clip-rule="nonzero"/></clipPath><clipPath id="052d01bc21"><path d="M 0.652344 0.109375 L 130.457031 0.109375 L 130.457031 147.894531 L 0.652344 147.894531 Z M 0.652344 0.109375 " clip-rule="nonzero"/></clipPath><clipPath id="5bf8381acb"><path d="M 4.546875 34.21875 L 61.644531 1.234375 C 64.054688 -0.15625 67.023438 -0.15625 69.433594 1.234375 L 126.535156 34.21875 C 128.945312 35.609375 130.429688 38.183594 130.429688 40.964844 L 130.429688 106.933594 C 130.429688 109.714844 128.945312 112.289062 126.535156 113.679688 L 69.433594 146.660156 C 67.023438 148.054688 64.054688 148.054688 61.644531 146.660156 L 4.546875 113.679688 C 2.136719 112.289062 0.652344 109.714844 0.652344 106.933594 L 0.652344 40.964844 C 0.652344 38.183594 2.136719 35.609375 4.546875 34.21875 Z M 4.546875 34.21875 " clip-rule="nonzero"/></clipPath><clipPath id="a57ca24968"><rect x="0" width="131" y="0" height="148"/></clipPath><clipPath id="0869d85b48"><rect x="0" width="131" y="0" height="150"/></clipPath><clipPath id="8ce59dffad"><path d="M 148 23 L 333.15625 23 L 333.15625 88 L 148 88 Z M 148 23 " clip-rule="nonzero"/></clipPath><clipPath id="0be5c47acb"><rect x="0" width="186" y="0" height="65"/></clipPath><clipPath id="d42dde138b"><rect x="0" width="111" y="0" height="68"/></clipPath><clipPath id="507ab2c911"><rect x="0" width="334" y="0" height="150"/></clipPath></defs><g clip-path="url(#04357edca0)"><g transform="matrix(1, 0, 0, 1, 21, 0.000000000000004653)"><g clip-path="url(#507ab2c911)"><g clip-path="url(#3a77474f7c)"><g mask="url(#031a43898b)"><g transform="matrix(1, 0, 0, 1, -0.000000000000003553, 0.000000000000004653)"><g clip-path="url(#0869d85b48)"><g clip-path="url(#6e1c58011d)"><g clip-path="url(#3e5eeebc6c)"><g transform="matrix(1, 0, 0, 1, -0.000000000000003553, 1)"><g clip-path="url(#a57ca24968)"><g clip-path="url(#052d01bc21)"><g clip-path="url(#5bf8381acb)"><path fill="#000000" d="M 0.652344 148.910156 L 0.652344 -0.90625 L 130.664062 -0.90625 L 130.664062 148.910156 Z M 0.652344 148.910156 " fill-opacity="1" fill-rule="nonzero"/></g></g></g></g></g></g></g></g></g></g><g clip-path="url(#8ce59dffad)"><g transform="matrix(1, 0, 0, 1, 148, 23)"><g clip-path="url(#0be5c47acb)"><g fill="#000000" fill-opacity="1"><g transform="translate(0.494876, 48.832021)"><g><path d="M 34.4375 0.515625 L 11.671875 -31.90625 L 11.453125 -31.90625 L 11.453125 -9.8125 C 11.453125 -8.101562 11.507812 -6.75 11.625 -5.75 C 11.75 -4.757812 12.007812 -3.988281 12.40625 -3.4375 C 12.800781 -2.894531 13.347656 -2.535156 14.046875 -2.359375 C 14.753906 -2.191406 15.675781 -2.09375 16.8125 -2.0625 L 16.8125 0 L 1.546875 0 L 1.546875 -2.0625 C 2.804688 -2.09375 3.820312 -2.203125 4.59375 -2.390625 C 5.363281 -2.578125 5.960938 -2.925781 6.390625 -3.4375 C 6.828125 -3.957031 7.113281 -4.6875 7.25 -5.625 C 7.382812 -6.570312 7.453125 -7.847656 7.453125 -9.453125 L 7.453125 -30.109375 C 7.453125 -31.546875 7.382812 -32.734375 7.25 -33.671875 C 7.113281 -34.617188 6.851562 -35.367188 6.46875 -35.921875 C 6.09375 -36.472656 5.550781 -36.859375 4.84375 -37.078125 C 4.144531 -37.296875 3.21875 -37.441406 2.0625 -37.515625 L 2.0625 -39.578125 L 16.390625 -39.578125 L 37.109375 -9.859375 L 37.3125 -9.859375 L 37.3125 -29.75 C 37.3125 -31.425781 37.25 -32.769531 37.125 -33.78125 C 37.007812 -34.800781 36.753906 -35.582031 36.359375 -36.125 C 35.960938 -36.675781 35.410156 -37.035156 34.703125 -37.203125 C 34.003906 -37.378906 33.09375 -37.484375 31.96875 -37.515625 L 31.96875 -39.578125 L 47.234375 -39.578125 L 47.234375 -37.515625 C 45.960938 -37.484375 44.941406 -37.375 44.171875 -37.1875 C 43.398438 -37 42.800781 -36.644531 42.375 -36.125 C 41.945312 -35.613281 41.660156 -34.878906 41.515625 -33.921875 C 41.378906 -32.960938 41.3125 -31.691406 41.3125 -30.109375 L 41.3125 0.515625 Z M 34.4375 0.515625 "/></g></g></g><g fill="#000000" fill-opacity="1"><g transform="translate(47.765484, 48.832021)"><g><path d="M 17.671875 -14.640625 C 14.796875 -13.335938 12.628906 -12.128906 11.171875 -11.015625 C 9.722656 -9.910156 9 -8.753906 9 -7.546875 C 9 -6.554688 9.269531 -5.769531 9.8125 -5.1875 C 10.363281 -4.601562 11.050781 -4.3125 11.875 -4.3125 C 12.695312 -4.3125 13.46875 -4.457031 14.1875 -4.75 C 14.90625 -5.039062 15.519531 -5.425781 16.03125 -5.90625 C 16.550781 -6.382812 16.953125 -6.957031 17.234375 -7.625 C 17.523438 -8.300781 17.671875 -9.015625 17.671875 -9.765625 Z M 17.671875 -17.375 L 17.671875 -19.53125 C 17.671875 -21.519531 17.320312 -22.96875 16.625 -23.875 C 15.925781 -24.78125 14.835938 -25.234375 13.359375 -25.234375 C 12.367188 -25.234375 11.613281 -24.96875 11.09375 -24.4375 C 10.582031 -23.90625 10.101562 -23.023438 9.65625 -21.796875 C 9.351562 -20.929688 8.914062 -20.257812 8.34375 -19.78125 C 7.78125 -19.300781 7.003906 -19.0625 6.015625 -19.0625 C 5.054688 -19.0625 4.316406 -19.351562 3.796875 -19.9375 C 3.285156 -20.519531 3.03125 -21.34375 3.03125 -22.40625 C 3.03125 -24.050781 3.925781 -25.351562 5.71875 -26.3125 C 7.519531 -27.269531 10.238281 -27.75 13.875 -27.75 C 17.707031 -27.75 20.445312 -27.054688 22.09375 -25.671875 C 23.738281 -24.285156 24.5625 -21.960938 24.5625 -18.703125 L 24.5625 -7.453125 C 24.5625 -4.535156 25.144531 -3.078125 26.3125 -3.078125 C 26.957031 -3.078125 27.554688 -3.300781 28.109375 -3.75 L 28.875 -2.265625 C 28.394531 -1.398438 27.648438 -0.71875 26.640625 -0.21875 C 25.628906 0.269531 24.492188 0.515625 23.234375 0.515625 C 21.648438 0.515625 20.445312 0.0351562 19.625 -0.921875 C 18.800781 -1.878906 18.390625 -3.234375 18.390625 -4.984375 L 18.140625 -4.984375 C 17.148438 -3.203125 15.863281 -1.847656 14.28125 -0.921875 C 12.707031 0.00390625 10.910156 0.46875 8.890625 0.46875 C 6.734375 0.46875 5.003906 -0.140625 3.703125 -1.359375 C 2.398438 -2.578125 1.75 -4.160156 1.75 -6.109375 C 1.75 -7.617188 2.414062 -9.03125 3.75 -10.34375 C 5.082031 -11.664062 7.3125 -12.960938 10.4375 -14.234375 Z M 17.671875 -17.375 "/></g></g></g><g fill="#000000" fill-opacity="1"><g transform="translate(76.230564, 48.832021)"><g><path d="M 1.28125 -24.40625 L 1.28125 -26.71875 C 3.34375 -27.300781 5.066406 -28.179688 6.453125 -29.359375 C 7.835938 -30.546875 8.875 -31.910156 9.5625 -33.453125 L 12.171875 -33.453125 L 12.171875 -27.234375 L 18.09375 -27.234375 L 18.09375 -24.40625 L 12.171875 -24.40625 L 12.171875 -8.640625 C 12.171875 -6.515625 12.398438 -5.003906 12.859375 -4.109375 C 13.328125 -3.222656 14.113281 -2.78125 15.21875 -2.78125 C 16.550781 -2.78125 17.5625 -3.394531 18.25 -4.625 L 19.328125 -3.140625 C 18.367188 -0.703125 16.109375 0.515625 12.546875 0.515625 C 10.179688 0.515625 8.335938 -0.03125 7.015625 -1.125 C 5.691406 -2.226562 5.03125 -3.769531 5.03125 -5.75 L 5.03125 -24.40625 Z M 1.28125 -24.40625 "/></g></g></g><g fill="#000000" fill-opacity="1"><g transform="translate(94.83045, 48.832021)"><g><path d="M 23.890625 -18.8125 C 23.890625 -20.175781 23.851562 -21.257812 23.78125 -22.0625 C 23.71875 -22.875 23.53125 -23.492188 23.21875 -23.921875 C 22.914062 -24.347656 22.460938 -24.640625 21.859375 -24.796875 C 21.265625 -24.953125 20.453125 -25.082031 19.421875 -25.1875 L 19.421875 -27.234375 L 31.046875 -27.234375 L 31.046875 -11.671875 C 31.046875 -9.578125 31.066406 -7.9375 31.109375 -6.75 C 31.160156 -5.570312 31.257812 -4.691406 31.40625 -4.109375 C 31.5 -3.660156 31.613281 -3.304688 31.75 -3.046875 C 31.894531 -2.796875 32.117188 -2.59375 32.421875 -2.4375 C 32.734375 -2.28125 33.15625 -2.175781 33.6875 -2.125 C 34.21875 -2.082031 34.910156 -2.0625 35.765625 -2.0625 L 35.765625 -0.046875 L 25.546875 0.5625 L 24.96875 -4.015625 L 24.765625 -4.015625 C 23.878906 -2.566406 22.628906 -1.445312 21.015625 -0.65625 C 19.410156 0.125 17.613281 0.515625 15.625 0.515625 C 11.957031 0.515625 9.164062 -0.785156 7.25 -3.390625 C 5.769531 -5.378906 5.03125 -8.207031 5.03125 -11.875 L 5.03125 -18.8125 C 5.03125 -20.21875 4.992188 -21.320312 4.921875 -22.125 C 4.859375 -22.925781 4.679688 -23.53125 4.390625 -23.9375 C 4.097656 -24.351562 3.660156 -24.640625 3.078125 -24.796875 C 2.492188 -24.953125 1.691406 -25.082031 0.671875 -25.1875 L 0.671875 -27.234375 L 12.171875 -27.234375 L 12.171875 -12.6875 C 12.171875 -9.226562 12.597656 -6.71875 13.453125 -5.15625 C 14.316406 -3.601562 15.691406 -2.828125 17.578125 -2.828125 C 19.597656 -2.828125 21.15625 -3.753906 22.25 -5.609375 C 23.34375 -7.390625 23.890625 -10.007812 23.890625 -13.46875 Z M 23.890625 -18.8125 "/></g></g></g><g fill="#000000" fill-opacity="1"><g transform="translate(130.232006, 48.832021)"><g><path d="M 13.265625 -7.96875 C 13.265625 -6.632812 13.320312 -5.582031 13.4375 -4.8125 C 13.5625 -4.039062 13.8125 -3.445312 14.1875 -3.03125 C 14.5625 -2.625 15.109375 -2.359375 15.828125 -2.234375 C 16.546875 -2.117188 17.503906 -2.0625 18.703125 -2.0625 L 18.703125 0 L 1.546875 0 L 1.546875 -2.0625 C 2.566406 -2.125 3.382812 -2.222656 4 -2.359375 C 4.625 -2.492188 5.085938 -2.765625 5.390625 -3.171875 C 5.703125 -3.585938 5.898438 -4.179688 5.984375 -4.953125 C 6.066406 -5.722656 6.109375 -6.757812 6.109375 -8.0625 L 6.109375 -14.34375 C 6.109375 -16.46875 6.054688 -18.160156 5.953125 -19.421875 C 5.859375 -20.691406 5.640625 -21.664062 5.296875 -22.34375 C 4.953125 -23.03125 4.460938 -23.484375 3.828125 -23.703125 C 3.191406 -23.929688 2.363281 -24.046875 1.34375 -24.046875 L 1.34375 -25.84375 L 11.609375 -27.75 L 12.4375 -21.84375 L 12.640625 -21.84375 C 13.566406 -23.65625 14.78125 -25.09375 16.28125 -26.15625 C 17.789062 -27.21875 19.382812 -27.75 21.0625 -27.75 C 22.363281 -27.75 23.425781 -27.421875 24.25 -26.765625 C 25.070312 -26.117188 25.484375 -25.300781 25.484375 -24.3125 C 25.484375 -23.207031 25.164062 -22.28125 24.53125 -21.53125 C 23.90625 -20.78125 23.039062 -20.40625 21.9375 -20.40625 C 21.425781 -20.40625 20.960938 -20.503906 20.546875 -20.703125 C 20.140625 -20.910156 19.773438 -21.144531 19.453125 -21.40625 C 19.128906 -21.664062 18.800781 -21.90625 18.46875 -22.125 C 18.144531 -22.34375 17.8125 -22.453125 17.46875 -22.453125 C 16.820312 -22.453125 16.207031 -22.023438 15.625 -21.171875 C 15.039062 -20.316406 14.5625 -19.171875 14.1875 -17.734375 C 13.90625 -16.703125 13.679688 -15.539062 13.515625 -14.25 C 13.347656 -12.96875 13.265625 -11.695312 13.265625 -10.4375 Z M 13.265625 -7.96875 "/></g></g></g><g fill="#000000" fill-opacity="1"><g transform="translate(154.792116, 48.832021)"><g><path d="M 27.75 -4.78125 C 24.632812 -1.25 20.742188 0.515625 16.078125 0.515625 C 13.960938 0.515625 12.035156 0.179688 10.296875 -0.484375 C 8.566406 -1.148438 7.085938 -2.09375 5.859375 -3.3125 C 4.628906 -4.53125 3.671875 -5.976562 2.984375 -7.65625 C 2.296875 -9.332031 1.953125 -11.203125 1.953125 -13.265625 C 1.953125 -15.378906 2.3125 -17.316406 3.03125 -19.078125 C 3.75 -20.847656 4.765625 -22.375 6.078125 -23.65625 C 7.398438 -24.945312 8.960938 -25.953125 10.765625 -26.671875 C 12.566406 -27.390625 14.546875 -27.75 16.703125 -27.75 C 20.335938 -27.75 23.164062 -26.769531 25.1875 -24.8125 C 27.207031 -22.863281 28.21875 -20.125 28.21875 -16.59375 C 28.21875 -16.050781 28.128906 -15.71875 27.953125 -15.59375 C 27.785156 -15.476562 27.304688 -15.421875 26.515625 -15.421875 L 9.96875 -15.421875 C 9.832031 -15.109375 9.765625 -14.539062 9.765625 -13.71875 C 9.765625 -10.363281 10.488281 -7.707031 11.9375 -5.75 C 13.394531 -3.800781 15.378906 -2.828125 17.890625 -2.828125 C 19.328125 -2.828125 20.753906 -3.148438 22.171875 -3.796875 C 23.597656 -4.453125 24.976562 -5.378906 26.3125 -6.578125 Z M 17.78125 -18.296875 C 19.15625 -18.296875 20.035156 -18.367188 20.421875 -18.515625 C 20.816406 -18.671875 21.015625 -19.039062 21.015625 -19.625 C 21.015625 -21.132812 20.585938 -22.367188 19.734375 -23.328125 C 18.878906 -24.285156 17.800781 -24.765625 16.5 -24.765625 C 15.019531 -24.765625 13.707031 -24.15625 12.5625 -22.9375 C 11.414062 -21.726562 10.671875 -20.179688 10.328125 -18.296875 Z M 17.78125 -18.296875 "/></g></g></g></g></g></g><g transform="matrix(1, 0, 0, 1, 148, 67)"><g clip-path="url(#d42dde138b)"><g fill="#000000" fill-opacity="1"><g transform="translate(0.458171, 52.009147)"><g><path d="M 22.234375 0.875 C 18.273438 0.875 14.800781 0.0390625 11.8125 -1.625 C 8.820312 -3.289062 6.476562 -5.628906 4.78125 -8.640625 C 3.09375 -11.648438 2.25 -15.15625 2.25 -19.15625 C 2.25 -23.15625 3.148438 -26.648438 4.953125 -29.640625 C 6.753906 -32.628906 9.222656 -34.96875 12.359375 -36.65625 C 15.492188 -38.34375 19.097656 -39.1875 23.171875 -39.1875 C 24.972656 -39.1875 26.875 -39.007812 28.875 -38.65625 C 30.875 -38.3125 32.828125 -37.789062 34.734375 -37.09375 L 35.71875 -26.421875 L 34.734375 -26.140625 C 33.335938 -29.554688 31.59375 -32.3125 29.5 -34.40625 C 27.414062 -36.5 24.867188 -37.546875 21.859375 -37.546875 C 17.523438 -37.546875 14.144531 -35.992188 11.71875 -32.890625 C 9.300781 -29.785156 8.09375 -25.554688 8.09375 -20.203125 C 8.09375 -16.535156 8.707031 -13.222656 9.9375 -10.265625 C 11.164062 -7.304688 12.898438 -4.957031 15.140625 -3.21875 C 17.378906 -1.476562 20.019531 -0.609375 23.0625 -0.609375 C 26.070312 -0.609375 28.640625 -1.523438 30.765625 -3.359375 C 32.898438 -5.191406 34.8125 -7.648438 36.5 -10.734375 L 37.484375 -10.40625 L 34.1875 -0.875 C 32.164062 -0.289062 30.238281 0.144531 28.40625 0.4375 C 26.570312 0.726562 24.515625 0.875 22.234375 0.875 Z M 22.234375 0.875 "/></g></g></g><g fill="#000000" fill-opacity="1"><g transform="translate(38.433593, 52.009147)"><g><path d="M 5.125 -7.328125 L 5.125 -32.703125 C 5.125 -34.128906 4.789062 -35.195312 4.125 -35.90625 C 3.46875 -36.625 2.5 -37.078125 1.21875 -37.265625 L 1.21875 -38.375 C 4.1875 -38.8125 6.660156 -39.488281 8.640625 -40.40625 L 9.515625 -39.640625 L 9.515625 -7.328125 C 9.515625 -5.960938 9.578125 -4.894531 9.703125 -4.125 C 9.835938 -3.351562 10.160156 -2.75 10.671875 -2.3125 C 11.191406 -1.875 12.054688 -1.46875 13.265625 -1.09375 L 13.265625 0 L 1.21875 0 L 1.21875 -1.09375 C 2.351562 -1.46875 3.191406 -1.835938 3.734375 -2.203125 C 4.285156 -2.566406 4.65625 -3.132812 4.84375 -3.90625 C 5.03125 -4.675781 5.125 -5.816406 5.125 -7.328125 Z M 5.125 -7.328125 "/></g></g></g><g fill="#000000" fill-opacity="1"><g transform="translate(51.697199, 52.009147)"><g><path d="M 26.09375 -7.21875 C 26.09375 -5.050781 26.40625 -3.5625 27.03125 -2.75 C 27.65625 -1.945312 28.585938 -1.394531 29.828125 -1.09375 L 29.828125 0 L 22.671875 0 L 22.078125 -0.875 L 22.078125 -3.40625 C 19.984375 -2.050781 18.15625 -1.0625 16.59375 -0.4375 C 15.03125 0.1875 13.460938 0.5 11.890625 0.5 C 7.117188 0.5 4.734375 -2.472656 4.734375 -8.421875 L 4.734375 -19.875 C 4.734375 -21.300781 4.398438 -22.375 3.734375 -23.09375 C 3.078125 -23.8125 2.109375 -24.257812 0.828125 -24.4375 L 0.828125 -25.546875 C 3.796875 -25.984375 6.269531 -26.660156 8.25 -27.578125 L 9.140625 -26.8125 L 9.140625 -11.171875 C 9.140625 -9.453125 9.238281 -7.929688 9.4375 -6.609375 C 9.644531 -5.285156 10.101562 -4.253906 10.8125 -3.515625 C 11.53125 -2.785156 12.660156 -2.421875 14.203125 -2.421875 C 15.191406 -2.421875 16.3125 -2.613281 17.5625 -3 C 18.8125 -3.382812 20.1875 -4.054688 21.6875 -5.015625 L 21.6875 -19.59375 C 21.6875 -21.03125 21.351562 -22.101562 20.6875 -22.8125 C 20.03125 -23.53125 19.0625 -23.984375 17.78125 -24.171875 L 17.78125 -25.265625 C 20.75 -25.703125 23.226562 -26.378906 25.21875 -27.296875 L 26.09375 -26.53125 Z M 26.09375 -7.21875 "/></g></g></g><g fill="#000000" fill-opacity="1"><g transform="translate(81.58212, 52.009147)"><g><path d="M 17.28125 -26.96875 C 19.34375 -26.96875 21.171875 -26.4375 22.765625 -25.375 C 24.359375 -24.3125 25.613281 -22.828125 26.53125 -20.921875 C 27.445312 -19.015625 27.90625 -16.753906 27.90625 -14.140625 C 27.90625 -11.984375 27.492188 -10.019531 26.671875 -8.25 C 25.847656 -6.488281 24.738281 -4.96875 23.34375 -3.6875 C 21.945312 -2.40625 20.367188 -1.414062 18.609375 -0.71875 C 16.847656 -0.0195312 15.03125 0.328125 13.15625 0.328125 C 12.238281 0.328125 11.171875 0.242188 9.953125 0.078125 C 8.742188 -0.0859375 7.597656 -0.296875 6.515625 -0.546875 C 5.441406 -0.804688 4.59375 -1.066406 3.96875 -1.328125 L 3.96875 -34.34375 C 3.96875 -35.78125 3.632812 -36.851562 2.96875 -37.5625 C 2.3125 -38.28125 1.34375 -38.734375 0.0625 -38.921875 L 0.0625 -40.015625 C 3.03125 -40.453125 5.503906 -41.132812 7.484375 -42.0625 L 8.359375 -41.28125 L 8.359375 -34.40625 L 8.140625 -23.390625 C 9.828125 -24.453125 11.382812 -25.3125 12.8125 -25.96875 C 14.25 -26.632812 15.738281 -26.96875 17.28125 -26.96875 Z M 15.140625 -1.65625 C 17.816406 -1.65625 19.878906 -2.570312 21.328125 -4.40625 C 22.773438 -6.238281 23.5 -8.734375 23.5 -11.890625 C 23.5 -15.847656 22.753906 -18.898438 21.265625 -21.046875 C 19.785156 -23.203125 17.816406 -24.28125 15.359375 -24.28125 C 14.328125 -24.28125 13.234375 -24.078125 12.078125 -23.671875 C 10.921875 -23.265625 9.679688 -22.695312 8.359375 -21.96875 L 8.359375 -3.25 C 9.210938 -2.8125 10.242188 -2.4375 11.453125 -2.125 C 12.660156 -1.8125 13.890625 -1.65625 15.140625 -1.65625 Z M 15.140625 -1.65625 "/></g></g></g></g></g></g></g></g></svg>